<svg width="32" height="32" viewBox="0 0 32 32" fill="none" xmlns="http://www.w3.org/2000/svg">
<mask id="mask0_123_446" style="mask-type:alpha" maskUnits="userSpaceOnUse" x="0" y="0" width="32" height="32">
<rect width="32" height="32" fill="#D9D9D9"/>
</mask>
<g mask="url(#mask0_123_446)">
<path d="M15.9999 22.6665C16.3776 22.6665 16.6945 22.5385 16.9505 22.2825C17.2056 22.0274 17.3332 21.7109 17.3332 21.3332V17.3332H21.3665C21.7443 17.3332 22.0554 17.2052 22.2999 16.9492C22.5443 16.6941 22.6665 16.3776 22.6665 15.9998C22.6665 15.6221 22.5385 15.3052 22.2825 15.0492C22.0274 14.7941 21.711 14.6665 21.3332 14.6665H17.3332V10.6332C17.3332 10.2554 17.2056 9.94428 16.9505 9.69984C16.6945 9.45539 16.3776 9.33317 15.9999 9.33317C15.6221 9.33317 15.3056 9.46073 15.0505 9.71584C14.7945 9.97184 14.6665 10.2887 14.6665 10.6665V14.6665H10.6332C10.2554 14.6665 9.9443 14.7941 9.69985 15.0492C9.45541 15.3052 9.33319 15.6221 9.33319 15.9998C9.33319 16.3776 9.46074 16.6941 9.71585 16.9492C9.97185 17.2052 10.2887 17.3332 10.6665 17.3332H14.6665V21.3665C14.6665 21.7443 14.7945 22.0554 15.0505 22.2998C15.3056 22.5443 15.6221 22.6665 15.9999 22.6665ZM15.9999 29.3332C14.1554 29.3332 12.4221 28.983 10.7999 28.2825C9.17763 27.583 7.76652 26.6332 6.56652 25.4332C5.36652 24.2332 4.41674 22.8221 3.71719 21.1998C3.01674 19.5776 2.66652 17.8443 2.66652 15.9998C2.66652 14.1554 3.01674 12.4221 3.71719 10.7998C4.41674 9.17762 5.36652 7.7665 6.56652 6.5665C7.76652 5.3665 9.17763 4.41628 10.7999 3.71584C12.4221 3.01628 14.1554 2.6665 15.9999 2.6665C17.8443 2.6665 19.5776 3.01628 21.1999 3.71584C22.8221 4.41628 24.2332 5.3665 25.4332 6.5665C26.6332 7.7665 27.583 9.17762 28.2825 10.7998C28.983 12.4221 29.3332 14.1554 29.3332 15.9998C29.3332 17.8443 28.983 19.5776 28.2825 21.1998C27.583 22.8221 26.6332 24.2332 25.4332 25.4332C24.2332 26.6332 22.8221 27.583 21.1999 28.2825C19.5776 28.983 17.8443 29.3332 15.9999 29.3332ZM15.9999 26.6665C18.9554 26.6665 21.4723 25.6278 23.5505 23.5505C25.6279 21.4723 26.6665 18.9554 26.6665 15.9998C26.6665 13.0443 25.6279 10.5274 23.5505 8.44917C21.4723 6.37184 18.9554 5.33317 15.9999 5.33317C13.0443 5.33317 10.5279 6.37184 8.45052 8.44917C6.3723 10.5274 5.33319 13.0443 5.33319 15.9998C5.33319 18.9554 6.3723 21.4723 8.45052 23.5505C10.5279 25.6278 13.0443 26.6665 15.9999 26.6665Z" fill="#1F64B4"/>
</g>
</svg>
