<svg width="23" height="23" viewBox="0 0 23 23" fill="none" xmlns="http://www.w3.org/2000/svg">
<mask id="mask0_282_1561" style="mask-type:alpha" maskUnits="userSpaceOnUse" x="0" y="0" width="23" height="23">
<rect width="23" height="23" fill="#D9D9D9"/>
</mask>
<g mask="url(#mask0_282_1561)">
<path d="M11.4998 16.2915C11.7714 16.2915 11.9991 16.1995 12.1831 16.0155C12.3665 15.8321 12.4582 15.6047 12.4582 15.3332V12.4582H15.3571C15.6287 12.4582 15.8523 12.3662 16.028 12.1822C16.2037 11.9988 16.2915 11.7714 16.2915 11.4998C16.2915 11.2283 16.1995 11.0005 16.0155 10.8165C15.8321 10.6332 15.6047 10.5415 15.3332 10.5415H12.4582V7.64255C12.4582 7.37102 12.3665 7.14741 12.1831 6.97171C11.9991 6.79602 11.7714 6.70817 11.4998 6.70817C11.2283 6.70817 11.0009 6.79985 10.8175 6.98321C10.6335 7.16721 10.5415 7.39498 10.5415 7.6665V10.5415H7.64255C7.37102 10.5415 7.14741 10.6332 6.97171 10.8165C6.79602 11.0005 6.70817 11.2283 6.70817 11.4998C6.70817 11.7714 6.79985 11.9988 6.98321 12.1822C7.16721 12.3662 7.39498 12.4582 7.6665 12.4582H10.5415V15.3571C10.5415 15.6287 10.6335 15.8523 10.8175 16.028C11.0009 16.2037 11.2283 16.2915 11.4998 16.2915ZM11.4998 21.0832C10.1741 21.0832 8.92831 20.8314 7.76234 20.328C6.59637 19.8252 5.58213 19.1425 4.71963 18.28C3.85713 17.4175 3.17448 16.4033 2.67167 15.2373C2.16823 14.0714 1.9165 12.8255 1.9165 11.4998C1.9165 10.1741 2.16823 8.92831 2.67167 7.76234C3.17448 6.59637 3.85713 5.58213 4.71963 4.71963C5.58213 3.85713 6.59637 3.17416 7.76234 2.67071C8.92831 2.16791 10.1741 1.9165 11.4998 1.9165C12.8255 1.9165 14.0714 2.16791 15.2373 2.67071C16.4033 3.17416 17.4175 3.85713 18.28 4.71963C19.1425 5.58213 19.8252 6.59637 20.328 7.76234C20.8314 8.92831 21.0832 10.1741 21.0832 11.4998C21.0832 12.8255 20.8314 14.0714 20.328 15.2373C19.8252 16.4033 19.1425 17.4175 18.28 18.28C17.4175 19.1425 16.4033 19.8252 15.2373 20.328C14.0714 20.8314 12.8255 21.0832 11.4998 21.0832ZM11.4998 19.1665C13.6241 19.1665 15.4332 18.42 16.9269 16.9269C18.42 15.4332 19.1665 13.6241 19.1665 11.4998C19.1665 9.37553 18.42 7.56652 16.9269 6.0728C15.4332 4.57971 13.6241 3.83317 11.4998 3.83317C9.37553 3.83317 7.56684 4.57971 6.07375 6.0728C4.58003 7.56652 3.83317 9.37553 3.83317 11.4998C3.83317 13.6241 4.58003 15.4332 6.07375 16.9269C7.56684 18.42 9.37553 19.1665 11.4998 19.1665Z" fill="black"/>
</g>
</svg>
