<svg width="28" height="28" viewBox="0 0 28 28" fill="none" xmlns="http://www.w3.org/2000/svg">
<mask id="mask0_123_421" style="mask-type:alpha" maskUnits="userSpaceOnUse" x="0" y="0" width="28" height="28">
<rect width="28" height="28" fill="#D9D9D9"/>
</mask>
<g mask="url(#mask0_123_421)">
<path d="M22.05 23.6833L15.5167 17.15C14.9333 17.6167 14.2625 17.9861 13.5042 18.2583C12.7458 18.5306 11.9389 18.6667 11.0833 18.6667C8.96389 18.6667 7.17033 17.9328 5.70267 16.4652C4.23422 14.9967 3.5 13.2028 3.5 11.0833C3.5 8.96389 4.23422 7.16994 5.70267 5.7015C7.17033 4.23383 8.96389 3.5 11.0833 3.5C13.2028 3.5 14.9967 4.23383 16.4652 5.7015C17.9328 7.16994 18.6667 8.96389 18.6667 11.0833C18.6667 11.9389 18.5306 12.7458 18.2583 13.5042C17.9861 14.2625 17.6167 14.9333 17.15 15.5167L23.7125 22.0792C23.9264 22.2931 24.0333 22.5556 24.0333 22.8667C24.0333 23.1778 23.9167 23.45 23.6833 23.6833C23.4694 23.8972 23.1972 24.0042 22.8667 24.0042C22.5361 24.0042 22.2639 23.8972 22.05 23.6833ZM11.0833 16.3333C12.5417 16.3333 13.7814 15.8231 14.8027 14.8027C15.8231 13.7814 16.3333 12.5417 16.3333 11.0833C16.3333 9.625 15.8231 8.38522 14.8027 7.364C13.7814 6.34356 12.5417 5.83333 11.0833 5.83333C9.625 5.83333 8.38522 6.34356 7.364 7.364C6.34356 8.38522 5.83333 9.625 5.83333 11.0833C5.83333 12.5417 6.34356 13.7814 7.364 14.8027C8.38522 15.8231 9.625 16.3333 11.0833 16.3333Z" fill="#1C1B1F"/>
</g>
</svg>
