<svg width="32" height="32" viewBox="0 0 32 32" fill="none" xmlns="http://www.w3.org/2000/svg">
<mask id="mask0_269_612" style="mask-type:alpha" maskUnits="userSpaceOnUse" x="0" y="0" width="32" height="32">
<rect width="32" height="32" fill="#D9D9D9"/>
</mask>
<g mask="url(#mask0_269_612)">
<path d="M14.1333 21.4L23.5333 12L21.6667 10.1333L14.1333 17.6667L10.3333 13.8667L8.46667 15.7333L14.1333 21.4ZM6.66667 28C5.93333 28 5.30533 27.7391 4.78267 27.2173C4.26089 26.6947 4 26.0667 4 25.3333V6.66667C4 5.93333 4.26089 5.30533 4.78267 4.78267C5.30533 4.26089 5.93333 4 6.66667 4H12.2667C12.5556 3.2 13.0391 2.55556 13.7173 2.06667C14.3947 1.57778 15.1556 1.33333 16 1.33333C16.8444 1.33333 17.6058 1.57778 18.284 2.06667C18.9613 2.55556 19.4444 3.2 19.7333 4H25.3333C26.0667 4 26.6947 4.26089 27.2173 4.78267C27.7391 5.30533 28 5.93333 28 6.66667V25.3333C28 26.0667 27.7391 26.6947 27.2173 27.2173C26.6947 27.7391 26.0667 28 25.3333 28H6.66667ZM6.66667 25.3333H25.3333V6.66667H6.66667V25.3333ZM16 5.66667C16.2889 5.66667 16.528 5.572 16.7173 5.38267C16.9058 5.19422 17 4.95555 17 4.66667C17 4.37778 16.9058 4.13867 16.7173 3.94933C16.528 3.76089 16.2889 3.66667 16 3.66667C15.7111 3.66667 15.4724 3.76089 15.284 3.94933C15.0947 4.13867 15 4.37778 15 4.66667C15 4.95555 15.0947 5.19422 15.284 5.38267C15.4724 5.572 15.7111 5.66667 16 5.66667Z" fill="#1F64B4"/>
</g>
</svg>
