<svg width="23" height="23" viewBox="0 0 23 23" fill="none" xmlns="http://www.w3.org/2000/svg">
<mask id="mask0_282_1564" style="mask-type:alpha" maskUnits="userSpaceOnUse" x="0" y="0" width="23" height="23">
<rect width="23" height="23" fill="#D9D9D9"/>
</mask>
<g mask="url(#mask0_282_1564)">
<path d="M10.1583 15.3813L16.9146 8.62504L15.5729 7.28337L10.1583 12.698L7.42708 9.96671L6.08542 11.3084L10.1583 15.3813ZM4.79167 20.125C4.26458 20.125 3.81321 19.9375 3.43754 19.5625C3.06251 19.1868 2.875 18.7355 2.875 18.2084V4.79171C2.875 4.26462 3.06251 3.81325 3.43754 3.43758C3.81321 3.06255 4.26458 2.87504 4.79167 2.87504H8.81667C9.02431 2.30004 9.37186 1.83685 9.85933 1.48546C10.3462 1.13407 10.8931 0.958374 11.5 0.958374C12.1069 0.958374 12.6542 1.13407 13.1416 1.48546C13.6285 1.83685 13.9757 2.30004 14.1833 2.87504H18.2083C18.7354 2.87504 19.1868 3.06255 19.5625 3.43758C19.9375 3.81325 20.125 4.26462 20.125 4.79171V18.2084C20.125 18.7355 19.9375 19.1868 19.5625 19.5625C19.1868 19.9375 18.7354 20.125 18.2083 20.125H4.79167ZM4.79167 18.2084H18.2083V4.79171H4.79167V18.2084ZM11.5 4.07296C11.7076 4.07296 11.8795 4.00492 12.0156 3.86883C12.151 3.73339 12.2188 3.56185 12.2188 3.35421C12.2188 3.14657 12.151 2.97471 12.0156 2.83862C11.8795 2.70318 11.7076 2.63546 11.5 2.63546C11.2924 2.63546 11.1208 2.70318 10.9854 2.83862C10.8493 2.97471 10.7812 3.14657 10.7812 3.35421C10.7812 3.56185 10.8493 3.73339 10.9854 3.86883C11.1208 4.00492 11.2924 4.07296 11.5 4.07296Z" fill="black"/>
</g>
</svg>
